# xmcd
#
# Track frame offsets:
#	150
#	12390
#	26085
#	39290
#	52554
#	64389
#	75703
#	85003
#	95507
#	106671
#	117872
#	127381
#	138317
#	148528
#	159468
#	170462
#	181061
#	192008
#	203345
#	212228
#	223419
#	235629
#	247164
#	257773
#	267583
#	277574
#	288655
#	298436
#	306770
#	318991
#	327040
#	340391
#	349392
#
# Disc length: 4793 seconds
#
# Revision: 0
# Processed by: cddbd v1.5.2PL0 Copyright (c) Steve Scherf et al.
# Submitted via: FairStars CD Ripper 1.80
#
DISCID=ef12b721
DTITLE=Various Artist - The Last Shout! Twilight of the blues shouters 1954-1962 cd3
DYEAR=2014
DGENRE=Blues
TTITLE0=Clarence Samuels - Chicken-Hearted Woman
TTITLE1=Jimmy Nelson - I Sat and Cried 
TTITLE2=The Tone Twins with Jimmy Lewis Band - Hey Pretty Girl 
TTITLE3=Stomp Gordon and His Orchestra - Ride Superman Ride 
TTITLE4=Joe 'Mr G' August - Boogie w. Calypso 
TTITLE5=Dossie 'Thunderbird' Terry - Skinny Ginny 
TTITLE6=Emmet Davis - How About It Baby 
TTITLE7=Titus Turner - Get On The Right Track Baby 
TTITLE8=Earl Williams and His Quintette - O Baby Please 
TTITLE9=Piney Brown and his Blues Toppers - Sugar In My Tea...
TTITLE10=Tommy Brown - Rock Away My Blues 
TTITLE11=Great Gates - Jump, Jump, Jump 
TTITLE12=Little Caesar with Eddie Beal Orchestra - I'm Reachin 
TTITLE13=Rudy Green - Teeny Weeny Baby 
TTITLE14=Billy Wright - The Question Wha cha Gonna Do? 
TTITLE15=Big Tiny Kennedy and His Orchestra - Country Boy 
TTITLE16=Titus Turner and His Band - Hungry Man 
TTITLE17=Rudy Green - Wild Life 
TTITLE18=Little Caesar with Eddie Beal Orchestra - Who Slammed The Door 
TTITLE19=Joe 'Mr G' August - Strange Things Happening...
TTITLE20=Earl Williams and His Quintette - You Ain't Puttin Out...
TTITLE21=Jimmy Lewis - Last Night...
TTITLE22=Rudy Green - My Mumblin Baby 
TTITLE23=Emmet Davis - You Changed My Night...
TTITLE24=Dossie 'Thunderbird' Terry - Fool Mule 
TTITLE25=Piney Brown and his Blues Toppers - My Love 
TTITLE26=Big Tiny Kennedy and His Orchestra - Strange Kind Of Feeling 
TTITLE27=Tommy Brown - Someday Somewhere 
TTITLE28=Jimmy Nelson - Unlock The Door 
TTITLE29=Roy Brown - Be My Love...
TTITLE30=Titus Turner - Have Mercy Baby 
TTITLE31=Ivory Joe Hunter with Milt Rogers Orchestra - Welcome Home Baby 
TTITLE32=Smiley Lewis - I'm Coming Down With The Blues 
EXTD=
EXTT0=
EXTT1=
EXTT2=
EXTT3=
EXTT4=
EXTT5=
EXTT6=
EXTT7=
EXTT8=
EXTT9=
EXTT10=
EXTT11=
EXTT12=
EXTT13=
EXTT14=
EXTT15=
EXTT16=
EXTT17=
EXTT18=
EXTT19=
EXTT20=
EXTT21=
EXTT22=
EXTT23=
EXTT24=
EXTT25=
EXTT26=
EXTT27=
EXTT28=
EXTT29=
EXTT30=
EXTT31=
EXTT32=
PLAYORDER=
